#!OML:ASF G:\JayActor3\Patient Classification 1\Patient 1\Session 6\male.ASF
:FULLY-SPECIFIED
:DEGREES
2421
root 10.9225 14.6747 -5.75027 30.2041 -74.241 -11.2028
lowerback 41.1911 -2.11213 4.74712
upperback 16.7378 -2.77764 1.66112
thorax -1.05355 -1.96313 0.302724
lowerneck -14.133 6.21601 7.43309
upperneck 2.16285 7.0258 -1.53964
head 3.5919 3.48151 -1.29597
rclavicle -5.28767e-014 8.64713e-015
rhumerus -7.92764 9.59417 -77.0631
rradius 68.857
rwrist -3.80696
rhand -25.9471 -8.67641
rfingers 7.12502
rthumb 0.596871 -38.6553
lclavicle -5.28767e-014 8.64713e-015
lhumerus 36.3926 -7.21945 50.4227
lradius 54.0872
lwrist 39.5224
lhand -25.0622 15.984
lfingers 7.12502
lthumb 1.45146 45.9589
rfemur -65.94 -1.46112 26.3437
rtibia 69.6487
rfoot -25.1002 -16.7352
rtoes 3.50294
lfemur -68.5266 19.496 -28.1739
ltibia 68.2942
lfoot -19.0806 7.8562
ltoes 0.310327
2422
root 10.9315 14.6715 -5.75184 30.0998 -74.2334 -11.1743
lowerback 41.1379 -2.1381 4.78266
upperback 16.7054 -2.79097 1.67222
thorax -1.0746 -1.96693 0.300356
lowerneck -14.2127 6.22718 7.45305
upperneck 2.22286 7.03162 -1.56235
head 3.63124 3.48432 -1.30398
rclavicle -5.4467e-014 -3.00165e-014
rhumerus -7.79801 9.66987 -77.0404
rradius 68.824
rwrist -3.87078
rhand -25.9361 -8.69922
rfingers 7.12502
rthumb 0.607488 -38.6781
lclavicle -5.4467e-014 -3.00165e-014
lhumerus 36.2031 -7.324 50.4477
lradius 54.1658
lwrist 39.4891
lhand -25.0447 15.8549
lfingers 7.12502
lthumb 1.46835 45.8296
rfemur -65.8945 -1.54985 26.3666
rtibia 69.6453
rfoot -25.1042 -16.6982
rtoes 3.55289
lfemur -68.6011 19.5234 -28.2092
ltibia 68.4272
lfoot -18.8836 7.90838
ltoes -0.288321
2423
root 10.9411 14.6694 -5.753 30.0201 -74.2196 -11.1604
lowerback 41.0825 -2.16466 4.82093
upperback 16.6722 -2.80384 1.6832
thorax -1.09588 -1.97024 0.296248
lowerneck -14.2808 6.24473 7.48264
upperneck 2.26696 7.0447 -1.58077
head 3.66333 3.49068 -1.31209
rclavicle 3.37934e-014 1.69961e-014
rhumerus -7.65804 9.74405 -77.019
rradius 68.7904
rwrist -3.97412
rhand -25.9843 -8.69034
rfingers 7.12502
rthumb 0.560907 -38.6693
lclavicle 3.37934e-014 1.69961e-014
lhumerus 36.0109 -7.43435 50.4615
lradius 54.2819
lwrist 39.4283
lhand -25.0162 15.7399
lfingers 7.12502
lthumb 1.49595 45.7144
rfemur -65.8519 -1.63055 26.3878
rtibia 69.6268
rfoot -25.1011 -16.6749
rtoes 3.58552
lfemur -68.72 19.5422 -28.2252
ltibia 68.6102
lfoot -18.6405 7.9002
ltoes -0.841365
2424
root 10.9511 14.6687 -5.7538 29.9561 -74.1989 -11.1537
lowerback 41.0241 -2.19042 4.85854
upperback 16.6402 -2.81615 1.69488
thorax -1.11484 -1.97328 0.292854
lowerneck -14.3344 6.26558 7.5199
upperneck 2.29277 7.06137 -1.59278
head 3.68629 3.49882 -1.31967
rclavicle 3.37934e-014 3.67752e-015
rhumerus -7.50875 9.81886 -76.9962
rradius 68.7591
rwrist -4.11225
rhand -26.0921 -8.63659
rfingers 7.12502
rthumb 0.456764 -38.6158
lclavicle 3.37934e-014 3.67752e-015
lhumerus 35.8171 -7.54706 50.4688
lradius 54.4366
lwrist 39.3603
lhand -24.9897 15.6277
lfingers 7.12502
lthumb 1.52152 45.602
rfemur -65.8064 -1.70067 26.404
rtibia 69.5889
rfoot -25.0949 -16.6685
rtoes 3.60963
lfemur -68.8738 19.5462 -28.2117
ltibia 68.8428
lfoot -18.3714 7.80607
ltoes -1.22961
2425
root 10.9613 14.6698 -5.75424 29.9163 -74.1663 -11.1664
lowerback 40.966 -2.21595 4.89838
upperback 16.611 -2.8276 1.71011
thorax -1.13065 -1.97604 0.291666
lowerneck -14.3726 6.28716 7.5612
upperneck 2.29727 7.07894 -1.59818
head 3.69857 3.50733 -1.32628
rclavicle -1.19271e-015 -5.36719e-015
rhumerus -7.34796 9.89709 -76.9659
rradius 68.7314
rwrist -4.27653
rhand -26.2076 -8.5677
rfingers 7.12502
rthumb 0.345269 -38.5472
lclavicle -1.19271e-015 -5.36719e-015
lhumerus 35.6295 -7.66293 50.4655
lradius 54.617
lwrist 39.3073
lhand -24.9717 15.5076
lfingers 7.12502
lthumb 1.5389 45.4818
rfemur -65.7515 -1.76076 26.4212
rtibia 69.5284
rfoot -25.0837 -16.6858
rtoes 3.60713
lfemur -69.0527 19.531 -28.1552
ltibia 69.1202
lfoot -18.0882 7.61482
ltoes -1.37531
2426
root 10.9715 14.6725 -5.75424 29.8988 -74.1175 -11.2023
lowerback 40.9158 -2.24332 4.94248
upperback 16.5846 -2.83968 1.73032
thorax -1.14519 -1.97939 0.293943
lowerneck -14.5146 6.32127 7.64545
upperneck 2.66729 7.10153 -1.74583
head 3.42684 3.50905 -1.228
rclavicle 1.82882e-014 4.87022e-015
rhumerus -7.17358 9.98258 -76.9262
rradius 68.7062
rwrist -4.44469
rhand -26.2986 -8.49792
rfingers 7.12502
rthumb 0.257335 -38.4775
lclavicle 1.82882e-014 4.87022e-015
lhumerus 35.4546 -7.78073 50.4519
lradius 54.8088
lwrist 39.2839
lhand -24.9727 15.3753
lfingers 7.12502
lthumb 1.5379 45.3495
rfemur -65.6811 -1.81485 26.4438
rtibia 69.4471
rfoot -25.0701 -16.731
rtoes 3.57368
lfemur -69.2424 19.497 -28.0553
ltibia 69.4254
lfoot -17.7866 7.3596
ltoes -1.36718
2427
root 10.9818 14.6766 -5.75375 29.9178 -74.0518 -11.2759
lowerback 40.8724 -2.2714 4.99232
upperback 16.5623 -2.85079 1.75744
thorax -1.15667 -1.98265 0.300318
lowerneck -14.5355 6.33872 7.6869
upperneck 2.64573 7.11361 -1.73748
head 3.42497 3.51494 -1.2306
rclavicle 4.09496e-014 -2.09718e-014
rhumerus -6.98814 10.0784 -76.8729
rradius 68.6872
rwrist -4.60204
rhand -26.3756 -8.43745
rfingers 7.12502
rthumb 0.182934 -38.4171
lclavicle 4.09496e-014 -2.09718e-014
lhumerus 35.2989 -7.89926 50.4292
lradius 54.9991
lwrist 39.2988
lhand -24.9857 15.2154
lfingers 7.12502
lthumb 1.52539 45.1897
rfemur -65.5966 -1.86194 26.4766
rtibia 69.3471
rfoot -25.0576 -16.8007
rtoes 3.52872
lfemur -69.4347 19.4422 -27.9071
ltibia 69.7433
lfoot -17.4755 7.05183
ltoes -1.1802
